<?xml version="1.0" encoding="UTF-8" standalone="no"?>
<svg viewBox="0 0 840 840"
  xmlns="http://www.w3.org/2000/svg">
  <style>
    .frame { fill: #1e2830; }
    .body { fill: #e2594e; }
    .bar { fill: #a73431; }
    .lower { fill: #972d2e; }
    .top { fill: #e75551; }
    .beige { fill: #615e5688; }
    .stripe { fill: #a83331; }
    .gray { fill: #3e4751; }
    .eyes { fill: #111a23; }
  </style>
  <path class="frame" d="m 505,101 c -32.54011,-0.0859 -115.32066,0.15988 -150,0.11328 -34.67934,-0.0466 -52.07171,11.85068 -60.55664,22.43164 -15.63447,19.49666 -12.79688,52.98633 -12.79688,52.98633 0,0 -36.22395,-0.16205 -112.64648,-0.53125 -10.63974,-0.0514 -20.12362,8.10352 -25.75977,16.64648 C 131.32191,211.82103 123,252 123,252 L 180.63281,377.60742 117,445.68359 c 0,0 12.23983,185.89414 13,198.31641 1.68028,12.46207 6.10395,23.54246 13,34 17.75581,26.98747 55.84907,20.06003 105,19 l 392.73633,-0.35742 C 678.89291,696.6078 720.83577,699.60517 727,666 734.93653,595.64285 737.56416,518.3251 742,444 L 677.70898,377.26562 737,252 c 0,0 -0.65052,-38.67674 -20.87305,-63.16406 C 711.72756,183.50873 697.87876,175.6504 688,176 c -35.64501,1.26145 -107,0 -107,0 0,0 1.38101,-34.13677 -11.96289,-50.45703 C 555.59786,109.1061 537.54011,101.0859 505,101 Z m 0.60938,47.11328 c 10.12734,0.25318 12.15189,3.03738 16.70919,7.59468 4.55732,4.55732 3.29139,19.49516 3.29139,19.49516 l -188.87558,1.01368 c 0,0 1.3e-4,-17.9759 2.78515,-22.53321 2.78503,-4.55731 13.92474,-5.06372 21.77344,-4.81054 103.03,-0.81251 139.75461,-0.87382 144.31641,-0.75977 z" />
  <path class="body" d="m 142,462 h 576 c 0,0 -9.25157,149.26984 -11,182 -2.43895,14.8105 -4.66667,18.66667 -12,26 -6.50637,2.98726 -16.89065,5.66667 -19,5 -533.47245,0 -455.65177,1 -484,1 -20,0 -20,0 -29,-8 -6,-6.66667 -9.33333,-15 -10,-25 -3.54458,-53.95873 -11,-181 -11,-181 z" />
  <path class="bar" d="M 154,260 H 708 L 659,369 H 201 Z" />
  <path class="lower" d="M 203,384.24045 657,384 708,441 H 152 Z" />
  <path class="top" d="M180 197h503q11 1 18 8c6 8 13 24 13 34H147c10-33 10-33 19-39q7-3 14-3" />
  <path class="beige" d="m 143.22771,678.4809 c 2.51644,3.69467 5.61687,7.14184 9.69626,9.54457 C 163.11386,694.15618 173.4176,694.68763 187,695 h 500 c 20.04086,-2.89932 24.60607,-6.74088 28.97491,-9.8985 l 5.05095,-5.59513 c 8.66667,0 8.97414,0.82696 14.97414,7.49363 2,2 3,8.66667 3,12 -2.66667,6.66667 -3.66667,11.66667 -11,15 -33,15 -75,11 -110,11 H 248 c -90.37901,0 -103.03821,0.4809 -123,-19 -2.66667,-3.33333 -5.48556,-9.28609 -4,-13 4.75231,-11.88078 17.08399,-14.5191 22.22771,-14.5191 z" />
  <path class="stripe" d="m 154,648 h 552 c -0.66667,9.33333 -4.66667,16.66667 -12,22 -9.03821,6.02547 -24.5546,4.96846 -37,5 -74.12713,0.18785 -431.43285,1.50637 -465,1 -20.99761,-0.31675 -21,0 -29,-8 -7.85159,-7.85159 -9,-15.93907 -9,-20 z" />
  <path class="gray" d="m 342,119 h 169 c 15.58651,-0.194 28.50103,2.82408 39,13 11.17051,10.8268 12,30 12,45 h -18 c -0.41514,-9.69428 0.27683,-29.29546 -7,-36 -5.56647,-4.58415 -21.06818,-8.03132 -27.73485,-8.02547 -48.08838,0.0422 -104.17677,0.0844 -152.26515,0.12659 -15.99999,0.014 -20.97327,-1.49788 -32,7.89888 -7.54324,6.4282 -8,26 -8,36 h -18 c -0.66667,-13.33333 0.90507,-32.63849 9,-43 8.70652,-11.14435 21.33333,-15 34,-15" />
  <path class="eyes" d="m396 546 7 7q7 9 16 11 17 4 31-5l9-8c4-5 4-5 8-6l8 5q2 5 1 11l-4 6-2 2q-13 15-33 17-25 3-45-14-8-6-9-17 0-4 3-7 5-2 10-2M531 495q9 6 11 16 3 14-5 26-8 6-17 5-7-1-11-6-8-11-5-25 2-10 9-15 10-4 18-1M343 494q8 3 12 12 5 13-1 25-4 8-12 11-7 2-13-1-9-8-10-19c-1-16-1-16 4-21q8-9 20-7" />
</svg>
